<?xml version="1.0" encoding="UTF-8"?>
<svg xmlns:xodm="http://www.corel.com/coreldraw/odm/2003" xmlns="http://www.w3.org/2000/svg" xmlns:xlink="http://www.w3.org/1999/xlink" version="1.1" id="Layer_1" x="0px" y="0px" viewBox="0 0 2500 639" style="enable-background:new 0 0 2500 639;" xml:space="preserve">
<g id="Layer_x0020_1">
	<g id="_2599888554384">
		<path d="M758.1,586.4V52.6h174.6c57.9,0,101.5,12,130.7,36c29.2,23.9,43.8,59.4,43.8,106.5c0,24.9-7,47.1-21.3,66.2    c-14.1,19.3-33.4,34.2-57.9,44.7c28.9,8,51.7,23.4,68.5,45.9c16.8,22.7,25,49.6,25,80.7c0,47.9-15.5,85.5-46.6,112.8    c-31,27.4-74.8,41-131.5,41H758.1z M828.6,337.9v190.7h116.1c32.8,0,58.7-8.4,77.6-25.3c18.9-16.9,28.4-40.2,28.4-69.7    c0-63.8-34.9-95.7-104.9-95.7L828.6,337.9L828.6,337.9z M828.6,280.1h106.2c30.8,0,55.4-7.8,74-23.2    c18.4-15.4,27.7-36.2,27.7-62.6c0-29.4-8.6-50.7-25.7-64c-17.1-13.4-43.2-20-78.1-20H828.6L828.6,280.1L828.6,280.1z     M1520.2,446.8h-223.8l-50.2,139.7h-72.6l203.9-533.9h61.6l204.2,533.9h-72.2L1520.2,446.8L1520.2,446.8z M1317.8,389h181.6    l-91-249.5L1317.8,389z M1872.5,348.5c-60.3-17.4-104.2-38.8-131.8-64.1c-27.5-25.3-41.3-56.6-41.3-93.7    c0-42,16.9-76.8,50.4-104.4c33.7-27.5,77.3-41.3,131-41.3c36.7,0,69.5,7.1,98.1,21.3c28.8,14.1,50.9,33.7,66.7,58.7    c15.8,24.9,23.7,52.2,23.7,81.7h-70.7c0-32.3-10.3-57.7-30.8-76.2c-20.5-18.4-49.6-27.7-87-27.7c-34.7,0-61.7,7.6-81.1,22.9    c-19.5,15.4-29.2,36.5-29.2,63.7c0,21.8,9.1,40.3,27.7,55.3c18.4,15,49.8,28.8,94.2,41.3c44.3,12.5,79.1,26.3,104.1,41.3    c25,15,43.6,32.5,55.7,52.7c12.1,20,18.1,43.7,18.1,70.8c0,43.3-16.9,78-50.6,104c-33.8,26-78.8,39-135.3,39    c-36.7,0-71-7-102.7-21c-31.7-14.1-56.2-33.4-73.5-57.8c-17.3-24.4-25.8-52.2-25.8-83.2h70.7c0,32.2,11.9,57.6,35.8,76.2    c23.8,18.6,55.6,28,95.5,28c37.2,0,65.6-7.6,85.4-22.8c19.9-15.1,29.8-35.8,29.8-61.8c0-26.2-9.3-46.4-27.5-60.7    C1954,376.6,1920.7,362.4,1872.5,348.5L1872.5,348.5z M2462.6,340.1h-231.3v188.5H2500v57.8h-339.1V52.6h335.5v57.8h-265.1v171.9    h231.3L2462.6,340.1L2462.6,340.1z"></path>
		<path d="M318.3,639c176.4,0,319.5-143,319.5-319.5C637.8,143.1,494.8,0,318.3,0C151,0,13.6,128.8,0,292.6h422.2v53.7H0    C13.6,510.2,151,639,318.3,639L318.3,639z"></path>
	</g>
</g>
</svg>
