<svg width="30" height="36" viewBox="0 0 30 36" fill="none" xmlns="http://www.w3.org/2000/svg">
<path d="M14.5841 8.95353C15.3455 8.95353 17.8144 8.46898 19.7295 5.67705C21.3678 3.2543 21.1832 0.55467 21.1832 0.55467C21.1832 0.55467 18.3451 0.347006 15.8531 3.43889C14.0534 5.70012 14.1918 8.93046 14.1918 8.93046C14.1918 8.93046 14.3303 8.95353 14.5841 8.95353Z" fill="white"/>
<path d="M28.8206 26.6973C28.959 26.305 29.0513 26.0743 29.0513 26.0743H29.0282C29.0282 26.0743 29.0052 26.0743 28.9821 26.0512C28.8436 26.0051 28.5206 25.8666 28.1053 25.6128C27.2746 25.1283 26.1209 24.2284 25.2903 22.7747C24.7596 21.8518 24.3904 20.6981 24.2981 19.2675C24.252 18.5522 24.3212 17.86 24.4596 17.237V17.214C24.5058 17.0063 24.5519 16.8217 24.6211 16.614C25.3595 14.2144 27.09 12.6454 27.7822 12.1147L28.0591 11.907C28.0591 11.907 25.844 8.469 21.6677 8.469C18.0682 8.469 16.7299 10.0842 14.8148 10.0842C12.4613 10.0842 12.0921 8.58437 8.60794 8.58437C6.80819 8.58437 4.29315 9.27659 2.42417 11.6993C0.947452 13.5914 0.393677 15.8295 0.162939 17.4678C0.0244965 18.5753 -0.0216468 19.7752 0.116796 21.1134C0.116796 21.2057 0.139871 21.298 0.139871 21.4134C0.278314 22.7517 0.624416 24.1822 1.10897 25.6128C1.10897 25.6359 1.13204 25.682 1.15512 25.7051C1.20126 25.8666 1.27048 26.0512 1.3397 26.2127C1.36278 26.2819 1.40892 26.3742 1.432 26.4435C1.45507 26.5127 1.47815 26.605 1.5243 26.6742C1.98577 27.874 2.51647 29.0277 3.13946 30.1122C4.93922 33.2964 7.26966 35.6961 9.46167 35.6961C11.9536 35.6961 12.7381 34.0809 15.2301 34.104C18.3912 34.127 19.268 36.1345 21.9215 35.6038C23.6982 35.2576 25.821 32.7426 27.1823 30.3429C27.2285 30.2506 27.2746 30.1814 27.3208 30.1122C27.9668 28.7278 28.5206 27.4356 28.8206 26.6973Z" fill="white"/>
</svg>
